<svg width="375" height="812" viewBox="0 0 375 812" fill="none" xmlns="http://www.w3.org/2000/svg">
<g clip-path="url(#clip0_61385_181)">
<rect width="375" height="812" fill="#202024"/>
<circle cx="278" cy="99" r="300" transform="rotate(-180 278 99)" fill="url(#paint0_radial_61385_181)"/>
<mask id="mask0_61385_181" style="mask-type:alpha" maskUnits="userSpaceOnUse" x="-1" y="0" width="375" height="812">
<rect x="-1" width="375" height="812" fill="#202024"/>
</mask>
<g mask="url(#mask0_61385_181)">
<path d="M374 168.101V-310.699L186.478 -418.486L-1.04468 -310.699V168.101L186.478 275.894L374 168.101Z" fill="url(#paint1_linear_61385_181)"/>
<g style="mix-blend-mode:luminosity" opacity="0.4">
<path d="M0.836624 61.3931V168.797L94.1275 222.505L187.418 168.797V61.3931L94.1275 7.68578L0.836624 61.3931Z" fill="url(#paint2_linear_61385_181)"/>
<path d="M0.836624 -46.0166V61.3877L94.1275 115.095L187.418 61.3877V-46.0166L94.1275 -99.7239L0.836624 -46.0166Z" fill="url(#paint3_linear_61385_181)"/>
<path d="M280.709 -99.6961V7.70821L187.418 61.4155L94.1274 7.70821V-99.6961L187.418 -153.403L280.709 -99.6961Z" fill="url(#paint4_linear_61385_181)"/>
<path d="M187.418 168.797V61.3927L280.709 7.68539L374 61.3927V168.797L280.709 222.504L187.418 168.797Z" fill="url(#paint5_linear_61385_181)"/>
<path d="M374 -46.0166V61.3877L280.709 115.095L187.418 61.3877V-46.0166L280.709 -99.7239L374 -46.0166Z" fill="url(#paint6_linear_61385_181)"/>
<path d="M280.709 222.527V115.123L187.418 61.4155L94.1274 115.123L94.1274 222.527L187.418 276.234L280.709 222.527Z" fill="url(#paint7_linear_61385_181)"/>
</g>
</g>
</g>
<defs>
<radialGradient id="paint0_radial_61385_181" cx="0" cy="0" r="1" gradientUnits="userSpaceOnUse" gradientTransform="translate(278 99) rotate(90) scale(300)">
<stop stop-color="#FFC323"/>
<stop offset="1" stop-color="#121214" stop-opacity="0"/>
</radialGradient>
<linearGradient id="paint1_linear_61385_181" x1="-68.9497" y1="58.9385" x2="435.115" y2="232.357" gradientUnits="userSpaceOnUse">
<stop stop-color="#FF008E"/>
<stop offset="1" stop-color="#FFCD1E"/>
</linearGradient>
<linearGradient id="paint2_linear_61385_181" x1="94.1275" y1="217.565" x2="1.23833" y2="59.047" gradientUnits="userSpaceOnUse">
<stop stop-color="#8257E5"/>
<stop offset="1" stop-color="#FF008E" stop-opacity="0"/>
</linearGradient>
<linearGradient id="paint3_linear_61385_181" x1="94.1275" y1="110.155" x2="1.23831" y2="-48.3627" gradientUnits="userSpaceOnUse">
<stop stop-color="#8257E5"/>
<stop offset="1" stop-color="#FF008E" stop-opacity="0"/>
</linearGradient>
<linearGradient id="paint4_linear_61385_181" x1="94.1275" y1="-105.732" x2="280.421" y2="6.68569" gradientUnits="userSpaceOnUse">
<stop stop-color="#FF008E" stop-opacity="0"/>
<stop offset="1" stop-color="#FFCD1E"/>
</linearGradient>
<linearGradient id="paint5_linear_61385_181" x1="374" y1="174.833" x2="187.706" y2="62.4152" gradientUnits="userSpaceOnUse">
<stop stop-color="#FF008E" stop-opacity="0"/>
<stop offset="1" stop-color="#FFCD1E"/>
</linearGradient>
<linearGradient id="paint6_linear_61385_181" x1="280.709" y1="110.155" x2="373.598" y2="-48.3627" gradientUnits="userSpaceOnUse">
<stop stop-color="#8257E5"/>
<stop offset="1" stop-color="#FF008E" stop-opacity="0"/>
</linearGradient>
<linearGradient id="paint7_linear_61385_181" x1="187.418" y1="66.3552" x2="280.307" y2="224.873" gradientUnits="userSpaceOnUse">
<stop stop-color="#8257E5"/>
<stop offset="1" stop-color="#FF008E" stop-opacity="0"/>
</linearGradient>
<clipPath id="clip0_61385_181">
<rect width="375" height="812" fill="white"/>
</clipPath>
</defs>
</svg>
